<?xml version="1.0" encoding="UTF-8"?>
<!DOCTYPE svg PUBLIC "-//W3C//DTD SVG 1.1//EN" "http://www.w3.org/Graphics/SVG/1.1/DTD/svg11.dtd">
<!-- Creator: CorelDRAW X8 -->
<svg xmlns="http://www.w3.org/2000/svg" xml:space="preserve" width="100px" height="100px" version="1.1" style="shape-rendering:geometricPrecision; text-rendering:geometricPrecision; image-rendering:optimizeQuality; fill-rule:evenodd; clip-rule:evenodd"
viewBox="0 0 100 100"
 xmlns:xlink="http://www.w3.org/1999/xlink">
 <defs>
  <style type="text/css">
   <![CDATA[
    .fil2 {fill:none}
    .fil1 {fill:#FEFEFE}
    .fil0 {fill:#02B3E4}
   ]]>
  </style>
 </defs>
 <g id="Camada_x0020_1">
  <metadata id="CorelCorpID_0Corel-Layer"/>
  <g id="_2419798444496">
   <g>
    <path class="fil0" d="M34 1l-33 19 0 45c2,30 35,45 58,27l24 -13c10,-6 15,-14 16,-27l0 -47 -6 -4 -27 15 0 48c0,4 -1,10 -3,12 -14,-3 -20,-12 -23,-22l0 -49 -6 -4z"/>
    <path class="fil1" d="M33 9l-25 15 0 43c7,30 39,31 52,16 -16,-5 -25,-14 -27,-30l0 -44z"/>
    <path class="fil1" d="M92 10l-19 10 0 43c0,5 0,9 -3,13 12,-1 21,-11 22,-20l0 -46z"/>
   </g>
   <rect class="fil2" x="-2" y="-2" width="104" height="104"/>
  </g>
 </g>
</svg>
